<svg xmlns="http://www.w3.org/2000/svg" version="1.1" xmlns:xlink="http://www.w3.org/1999/xlink" xmlns:svgjs="http://svgjs.dev/svgjs" width="1000" height="1871" viewBox="0 0 1000 1871"><g transform="matrix(1,0,0,1,1.8174454758512866,0.7574898785425148)"><svg viewBox="0 0 132 247" data-background-color="#ffffff" preserveAspectRatio="xMidYMid meet" height="1871" width="1000" xmlns="http://www.w3.org/2000/svg" xmlns:xlink="http://www.w3.org/1999/xlink"><g id="tight-bounds" transform="matrix(1,0,0,1,-0.23990280281236664,-0.09999999999999432)"><svg viewBox="0 0 132.47980560562476 247.2" height="247.2" width="132.47980560562476"><g><svg viewBox="0 0 198.71467417582414 370.7906064" height="247.2" width="132.47980560562476"><g><svg viewBox="0 0 198.71467417582414 370.7906064" height="370.7906064" width="198.71467417582414"><g id="textblocktransform"><svg viewBox="0 0 198.71467417582414 370.7906064" height="370.7906064" width="198.71467417582414" id="textblock"><g><rect width="198.71467417582414" height="247.2" fill="none" stroke-width="9.018103199999999" stroke="#010c80" data-fill-palette-color="none" data-stroke-palette-color="tertiary"></rect><rect width="198.71467417582414" height="123.5906064" y="247.2" fill="#010c80" data-fill-palette-color="tertiary"></rect></g><g><svg viewBox="0 0 198.71467417582414 247.2" height="247.2" width="198.71467417582414"><g transform="matrix(1,0,0,1,23.607599999999998,23.607599999999998)"><svg width="151.49947417582416" viewBox="3.559999942779541 -35.54999923706055 26.93000030517578 35.54999923706055" height="199.9848" data-palette-color="#010c80"><path d="M3.56-35.55L16.19-35.55Q20.26-35.55 23.14-34.33 26.03-33.11 27.55-30.71 29.08-28.32 29.08-24.83L29.08-24.83Q29.08-22.14 28.1-20.12 27.12-18.09 25.33-16.71 23.54-15.33 21.09-14.58L21.09-14.58 19.19-13.6 7.93-13.6 7.89-18.65 16.24-18.65Q18.41-18.65 19.86-19.41 21.31-20.17 22.03-21.48 22.75-22.8 22.75-24.49L22.75-24.49Q22.75-27.22 21.18-28.85 19.6-30.47 16.19-30.47L16.19-30.47 9.86-30.47 9.86 0 3.56 0 3.56-35.55ZM23.75 0L15.45-15.94 22.07-15.97 30.49-0.32 30.49 0 23.75 0Z" opacity="1" transform="matrix(1,0,0,1,0,0)" fill="#010c80" class="wordmark-text-0" data-fill-palette-color="primary" id="text-0"></path></svg></g></svg></g></svg></g></svg></g><g></g></svg></g><defs></defs></svg><rect width="132.47980560562476" height="247.2" fill="none" stroke="none" visibility="hidden"></rect></g></svg></g></svg>